<?xml version="1.0" standalone="no"?>
<!DOCTYPE svg PUBLIC "-//W3C//DTD SVG 20010904//EN"
 "http://www.w3.org/TR/2001/REC-SVG-20010904/DTD/svg10.dtd">
<svg version="1.0" xmlns="http://www.w3.org/2000/svg"
 width="959.000000pt" height="959.000000pt" viewBox="0 0 959.000000 959.000000"
 preserveAspectRatio="xMidYMid meet">

<g transform="translate(0.000000,959.000000) scale(0.100000,-0.100000)"
fill="#000000" stroke="none">
<path d="M4270 9074 c-142 -16 -194 -27 -290 -60 -99 -35 -124 -48 -149 -80
-46 -59 -14 -113 81 -137 35 -9 118 -26 186 -38 67 -11 124 -25 127 -29 3 -4
-55 -11 -128 -15 -223 -12 -468 -62 -762 -156 -71 -23 -150 -47 -175 -55 -266
-76 -590 -236 -803 -396 -43 -32 -80 -58 -82 -58 -7 0 -209 -162 -276 -222
-89 -79 -237 -231 -333 -343 -42 -48 -30 -98 27 -118 19 -7 76 17 89 37 4 6
10 8 13 4 3 -3 -22 -34 -57 -69 -34 -35 -83 -92 -109 -126 -150 -196 -300
-539 -316 -721 -5 -60 -3 -75 11 -91 45 -49 79 -33 156 76 115 161 247 313
271 313 5 0 -8 -44 -27 -97 -20 -54 -45 -123 -56 -153 -21 -61 -41 -113 -68
-180 -10 -25 -32 -79 -49 -120 -43 -107 -80 -182 -146 -290 -105 -174 -189
-261 -340 -352 -115 -69 -145 -94 -145 -120 0 -88 91 -79 350 34 208 90 421
222 497 308 l22 25 1 -23 c0 -26 -61 -206 -117 -344 -33 -83 -66 -147 -116
-229 -93 -150 -98 -169 -55 -201 45 -35 70 -20 241 153 86 88 158 158 158 157
1 -2 8 -52 15 -113 8 -60 18 -135 23 -165 26 -164 27 -148 -5 -156 -85 -20
-180 -90 -232 -169 -69 -104 -87 -171 -87 -315 0 -107 4 -134 24 -190 50 -137
125 -243 221 -314 144 -106 255 -131 442 -100 37 6 38 5 53 -32 9 -22 20 -48
24 -59 5 -11 17 -40 28 -65 150 -361 447 -620 958 -835 61 -26 112 -49 114
-51 3 -2 -30 -36 -71 -74 -183 -168 -265 -317 -313 -568 -17 -85 -21 -94 -47
-108 -48 -25 -106 -83 -138 -139 l-30 -52 -107 -7 c-60 -3 -198 -8 -308 -11
-225 -7 -245 -9 -245 -30 0 -31 51 -36 339 -33 l286 3 -2 -33 c0 -18 -3 -35
-5 -37 -5 -5 -285 -35 -330 -35 -43 0 -47 -6 -73 -108 -13 -50 -12 -82 5 -82
9 0 37 71 46 116 l6 32 125 7 c68 4 127 5 129 2 3 -3 -10 -45 -30 -94 l-35
-88 -58 -7 c-32 -4 -91 -11 -132 -15 -44 -5 -76 -13 -78 -20 -3 -9 28 -13 124
-15 l128 -3 3 -43 c2 -23 8 -42 13 -42 5 0 18 20 29 44 l18 44 96 7 c116 9
146 -3 146 -59 l0 -34 -100 -4 c-94 -3 -135 -16 -116 -35 9 -9 152 -9 216 0
24 4 48 13 52 21 7 12 19 10 73 -15 95 -45 173 -56 299 -41 103 11 124 17 203
54 69 33 111 75 145 146 33 67 33 68 33 217 l0 150 105 6 c164 10 408 10 414
0 3 -5 2 -28 -3 -52 -46 -219 -59 -298 -65 -386 -6 -90 -5 -103 9 -103 9 0 17
6 19 13 6 21 29 140 36 187 8 52 25 142 47 250 9 41 23 81 31 87 18 15 110 15
119 0 4 -6 6 -26 5 -45 -3 -44 15 -39 41 11 l19 37 74 0 c72 0 74 -1 74 -24 0
-14 -4 -28 -10 -31 -6 -3 -10 -15 -10 -26 0 -11 -7 -19 -17 -20 -10 0 -51 -1
-90 -2 -40 -1 -73 -6 -73 -12 -1 -5 8 -11 19 -13 36 -6 41 -24 23 -77 -20 -59
-26 -65 -69 -65 -23 0 -33 -5 -33 -15 0 -15 4 -17 53 -20 39 -3 43 -11 24 -50
-21 -43 -22 -75 -3 -75 12 0 46 71 46 98 0 7 10 16 23 21 24 9 223 8 232 -1 3
-3 1 -17 -5 -32 -13 -36 -14 -104 0 -90 6 6 18 34 28 62 10 29 22 55 25 59 8
7 330 4 667 -6 l215 -6 -3 -25 c-13 -99 -13 -120 -3 -120 11 0 41 60 58 115
l8 30 85 2 c110 3 126 -1 146 -39 9 -18 42 -58 72 -90 l55 -58 -100 0 c-55 0
-102 3 -106 6 -3 3 5 36 18 72 13 36 22 69 19 74 -15 24 -33 -3 -66 -102 l-15
-45 -154 -2 c-85 -2 -160 1 -167 5 -9 6 -7 22 12 68 14 34 21 63 16 68 -16 16
-36 -11 -55 -73 -19 -64 -25 -68 -87 -63 -34 4 -38 7 -35 31 3 37 -16 38 -27
1 l-9 -32 -73 4 c-40 2 -76 7 -80 11 -4 4 0 24 9 44 22 51 25 78 8 78 -7 0
-23 -27 -36 -60 l-22 -60 -76 0 c-42 1 -79 4 -83 8 -4 3 1 31 11 62 19 62 14
99 -10 74 -8 -8 -19 -36 -26 -64 -6 -27 -13 -56 -15 -63 -3 -11 -38 -12 -176
-7 -95 4 -209 10 -253 14 -100 8 -255 2 -255 -9 0 -12 39 -17 190 -27 l125 -8
-3 -62 c-5 -89 26 -82 43 9 4 21 12 41 19 46 6 4 43 6 81 3 63 -5 70 -8 67
-26 -2 -11 -5 -45 -7 -75 l-3 -55 -198 -3 c-193 -2 -237 -9 -197 -30 25 -14
846 -32 1518 -35 642 -2 1528 9 1815 24 118 7 237 12 264 13 l49 1 18 -55 c10
-30 30 -95 45 -144 23 -74 33 -92 58 -107 39 -24 41 -24 66 3 26 28 25 69 0
138 -71 189 -94 271 -83 289 12 20 1 41 -22 41 -7 0 -19 17 -28 38 -91 215
-175 375 -201 385 -18 7 -26 -1 -26 -24 0 -16 -6 -18 -42 -13 -24 3 -74 9
-112 12 -79 8 -77 5 -90 119 l-7 62 36 15 c29 12 35 20 35 44 0 16 -9 37 -20
47 -18 16 -27 17 -88 7 -37 -7 -93 -17 -126 -22 -32 -5 -154 -14 -270 -20
-116 -6 -240 -12 -274 -14 -35 -3 -73 -1 -85 4 -12 4 -50 36 -85 70 -55 54
-164 120 -198 120 -20 0 -42 35 -59 95 -56 197 -154 369 -310 548 -42 48 -74
91 -71 96 3 5 56 39 118 76 416 250 715 601 854 1004 11 29 25 56 31 58 7 3
34 -2 60 -12 66 -22 254 -31 324 -15 30 7 84 28 121 47 159 82 248 233 248
418 0 243 -140 440 -383 539 -39 16 -57 46 -57 97 0 18 5 29 14 29 22 0 126
-81 176 -136 81 -91 115 -101 155 -46 18 24 20 42 19 182 -1 116 -7 181 -23
258 -11 57 -21 106 -21 108 0 16 23 -14 48 -64 82 -160 100 -182 153 -182 82
0 104 77 96 334 -5 164 -8 194 -40 318 -41 161 -118 329 -197 432 -53 69 -54
78 -5 47 76 -48 174 -163 231 -273 61 -119 100 -143 155 -95 91 77 49 364 -96
643 -53 104 -163 270 -219 334 -159 178 -347 324 -471 365 -78 26 -95 40 -95
79 0 32 2 35 48 45 126 29 240 33 493 15 100 -6 107 -6 128 15 11 11 21 31 21
44 0 32 -94 145 -165 199 -77 58 -119 79 -225 114 -75 24 -101 27 -220 28 -78
1 -165 -5 -207 -13 -67 -13 -73 -13 -105 6 -46 27 -74 73 -82 135 -18 138 -96
333 -176 439 -56 75 -137 157 -223 227 -81 65 -278 187 -319 197 -34 9 -78
-19 -78 -49 0 -12 25 -65 56 -117 31 -51 69 -134 85 -182 27 -83 38 -180 21
-191 -4 -2 -39 26 -78 62 -75 71 -152 133 -247 197 -82 56 -178 115 -187 115
-5 0 -10 3 -12 8 -4 11 -268 143 -368 185 -47 19 -143 54 -215 78 -71 23 -139
46 -150 50 -20 7 -73 19 -195 45 -186 40 -472 52 -680 28z m-895 -688 c66 -8
145 -20 175 -26 30 -6 91 -17 135 -26 136 -25 270 -67 360 -111 118 -58 289
-182 273 -198 -3 -4 -30 -2 -60 4 -135 26 -197 31 -365 31 -360 0 -777 -50
-1343 -162 -113 -22 -227 -44 -253 -50 -97 -19 -97 -9 -1 67 223 174 506 339
714 416 216 80 186 76 365 55z m2243 -1632 c35 -39 55 -72 66 -112 9 -31 21
-72 27 -90 15 -46 70 -259 79 -307 39 -194 73 -413 66 -431 -4 -10 -23 -14
-64 -14 -58 0 -196 -27 -262 -51 -60 -21 -130 -70 -145 -100 -22 -41 -18 -70
10 -101 35 -38 64 -43 159 -29 44 6 140 14 211 18 109 5 132 3 143 -9 7 -9 18
-88 27 -199 19 -245 33 -295 94 -338 37 -27 105 -28 146 -3 109 67 178 206
258 518 13 48 28 89 33 91 14 5 34 -130 44 -296 8 -117 12 -138 33 -170 17
-26 37 -41 64 -49 54 -16 96 -1 154 55 46 44 47 45 75 29 76 -41 132 -128 183
-281 45 -138 57 -250 43 -403 -22 -240 -76 -446 -170 -642 -45 -95 -139 -251
-161 -270 -4 -3 -22 -25 -41 -50 -85 -111 -285 -290 -440 -393 -78 -52 -263
-150 -340 -181 -254 -101 -431 -147 -730 -188 -131 -18 -741 -18 -870 0 -293
41 -456 80 -725 172 -430 149 -740 340 -910 563 -37 48 -122 199 -144 257 -8
19 -20 49 -27 65 -20 47 -73 215 -85 270 -31 142 -39 296 -28 560 11 247 12
261 33 277 11 10 28 18 36 18 21 0 185 96 254 148 70 54 153 138 161 163 4 11
10 19 14 19 4 0 20 23 35 50 27 50 28 50 77 50 28 0 86 9 129 20 112 29 229
50 273 50 32 0 37 -3 37 -22 -1 -13 -7 -34 -15 -48 -8 -14 -14 -44 -15 -67 0
-55 26 -83 76 -83 85 0 296 72 450 154 129 69 227 149 336 276 58 68 60 55 14
-84 -48 -142 -80 -299 -72 -360 6 -53 37 -95 90 -123 50 -26 152 -13 239 30
200 99 378 274 567 557 147 221 297 525 360 730 12 41 29 94 36 118 7 24 18
89 24 145 15 130 18 147 29 147 5 0 32 -25 59 -56z m-2411 -816 c-19 -57 -49
-149 -67 -205 -29 -95 -35 -104 -66 -119 -19 -9 -36 -15 -38 -13 -2 2 -6 57
-10 121 l-7 117 38 43 c89 103 178 188 181 174 2 -9 -12 -62 -31 -118z m383
-27 c0 -35 -42 -186 -53 -193 -15 -10 -117 -10 -117 -1 0 11 154 212 163 213
4 0 7 -8 7 -19z m3832 -1050 c146 -42 255 -129 310 -248 27 -57 32 -83 36
-165 4 -89 2 -100 -23 -153 -34 -69 -99 -128 -174 -156 -48 -18 -71 -20 -156
-16 -105 5 -189 31 -201 61 -3 9 2 68 12 133 23 151 24 391 1 483 -8 35 -13
68 -11 72 10 15 140 8 206 -11z m-5158 -148 c-13 -124 -10 -496 3 -568 6 -33
14 -79 18 -102 l7 -41 -57 -13 c-175 -39 -383 109 -455 323 -19 56 -22 82 -18
150 3 46 13 106 22 135 20 59 92 142 150 174 36 19 41 19 52 5 6 -9 14 -45 18
-80 3 -35 10 -77 15 -93 5 -15 12 -45 16 -67 13 -76 88 -112 132 -63 11 13 27
56 37 102 35 169 50 225 59 225 6 0 6 -35 1 -87z m2971 -2133 c18 -29 -78
-130 -163 -171 -106 -50 -259 -32 -357 43 -49 38 -90 92 -80 107 4 7 85 11
228 12 182 1 314 7 359 17 4 1 10 -2 13 -8z m549 -343 c16 -11 44 -86 46 -123
0 -16 -88 -104 -105 -104 -7 0 -16 4 -19 9 -3 5 -21 12 -40 15 -33 6 -75 41
-63 52 3 3 -1 21 -9 41 -13 31 -13 38 1 59 8 13 20 24 25 24 6 0 15 12 21 26
9 26 12 26 67 20 31 -4 65 -12 76 -19z m666 -217 c47 -7 109 -23 139 -36 81
-36 175 -108 211 -161 30 -46 32 -52 28 -125 -8 -146 -96 -275 -228 -336 -108
-50 -291 -31 -400 42 -57 38 -64 47 -102 125 -28 58 -32 74 -32 155 0 78 4 99
27 146 34 70 98 145 157 182 49 32 43 31 200 8z m-3006 -23 c125 -57 195 -144
217 -271 25 -144 -11 -266 -94 -319 -99 -65 -288 -94 -390 -62 -82 25 -157 97
-204 193 -35 71 -38 82 -36 158 1 69 6 91 34 147 17 36 52 86 77 112 42 41 50
45 96 45 28 1 65 7 81 15 46 22 150 13 219 -18z m4171 -149 c40 -129 43 -143
31 -153 -9 -7 -80 -7 -207 -2 -163 7 -196 11 -207 25 -12 16 -14 16 -27 -1
-10 -14 -24 -17 -62 -15 l-48 3 3 55 c2 30 7 58 10 62 4 3 110 11 237 18 126
6 232 13 234 16 9 9 32 3 36 -8z m-578 -26 c7 -4 13 -32 15 -62 l3 -55 -65 3
c-36 2 -69 7 -73 11 -4 4 -9 28 -10 52 l-2 44 55 6 c30 3 57 6 60 7 3 1 10 -2
17 -6z m-1052 -12 c4 -6 1 -36 -5 -67 l-12 -56 -97 6 c-53 4 -277 10 -498 13
-221 4 -407 10 -413 14 -8 5 -4 20 14 49 l26 41 293 3 c160 1 381 3 489 5 125
1 199 -2 203 -8z m-1063 -40 c-4 -60 -4 -60 -106 -60 -52 0 -97 4 -101 10 -3
5 6 28 20 50 l26 41 82 -3 82 -3 -3 -35z m-159 -125 c-1 -11 -9 -37 -18 -57
l-15 -38 -85 0 c-47 0 -85 2 -85 5 0 2 12 30 27 60 l28 56 75 -3 c68 -3 75 -5
73 -23z m273 12 c2 -7 -5 -34 -16 -60 l-21 -48 -107 3 c-100 3 -107 4 -105 23
4 40 16 80 27 87 6 4 57 8 114 8 75 0 104 -3 108 -13z m427 5 c37 -4 38 -5 31
-36 -3 -17 -13 -43 -20 -58 -13 -25 -20 -28 -68 -28 -78 0 -85 5 -80 48 l5 37
-25 -30 c-14 -16 -26 -33 -26 -37 0 -5 -54 -8 -120 -8 -127 0 -135 4 -105 44
8 11 15 27 15 36 0 37 20 41 190 39 91 -1 182 -4 203 -7z m1773 -8 c153 -9
375 -16 492 -17 l213 -2 10 -40 c6 -22 24 -85 41 -140 17 -55 33 -112 35 -127
l5 -28 -100 0 c-68 0 -103 4 -109 13 -6 6 -14 41 -17 76 -8 71 -2 80 49 81 31
0 63 15 54 24 -13 13 -156 26 -291 26 -152 0 -166 4 -160 43 2 9 -1 17 -7 17
-5 0 -11 -12 -13 -27 l-3 -28 -142 -3 c-159 -3 -147 -8 -155 71 -5 45 -23 32
-28 -20 l-5 -48 -107 -3 -107 -3 5 53 c9 89 12 98 37 98 13 0 149 -7 303 -16z
m-1468 0 c26 -8 27 -15 6 -71 l-17 -44 -120 3 c-72 2 -122 7 -124 13 -2 6 10
32 27 58 l30 47 87 0 c49 0 98 -3 111 -6z m-2911 -63 c7 -29 20 -68 29 -87 9
-18 13 -38 9 -43 -3 -6 -38 -11 -77 -11 l-71 0 7 53 c13 99 37 150 69 145 15
-2 23 -17 34 -57z m3111 46 c6 -7 14 -32 18 -55 6 -38 5 -42 -14 -42 -12 0
-25 8 -31 18 -9 16 -11 16 -24 -2 -11 -14 -26 -19 -61 -18 -26 0 -50 3 -53 6
-5 5 12 75 24 99 7 13 130 8 141 -6z m1187 -201 c2 -17 6 -53 7 -81 l3 -50
-85 0 -85 0 -3 53 c-4 70 -26 65 -30 -6 l-3 -52 -105 0 -106 0 34 41 c18 22
45 59 60 82 l27 42 123 5 c68 3 131 3 140 1 11 -2 19 -16 23 -35z m190 -40 c4
-41 4 -79 1 -85 -8 -13 -142 -15 -150 -3 -3 4 -2 43 1 85 l6 77 68 0 67 0 7
-74z m163 62 c5 -7 15 -39 22 -70 19 -97 44 -77 33 28 l-6 54 84 0 c46 0 89
-4 95 -8 16 -9 34 -78 34 -125 l0 -37 -187 2 -188 3 -6 75 c-3 41 -4 78 -2 83
7 12 110 8 121 -5z m-2460 -168 l52 0 0 -65 c0 -38 4 -65 10 -65 15 0 22 29
29 114 1 8 290 -1 324 -10 13 -4 15 -9 8 -18 -5 -6 -11 -34 -13 -61 l-3 -50
-85 0 -85 0 3 46 c2 29 -1 50 -8 54 -16 10 -30 -13 -30 -50 -1 -59 -1 -59
-196 -52 -97 4 -178 8 -179 9 -7 8 28 144 38 151 7 4 28 5 47 2 19 -2 59 -5
88 -5z m649 -34 c2 -2 -1 -15 -8 -27 -11 -22 -15 -37 -18 -82 -1 -16 -10 -17
-83 -15 l-83 3 3 58 c2 41 -1 57 -10 57 -9 0 -8 4 2 11 14 10 186 6 197 -5z
m229 -51 c0 -85 -3 -88 -109 -80 -51 4 -93 9 -95 10 -2 2 2 31 9 64 l13 62 91
-3 90 -3 1 -50z m210 47 c6 -4 8 -30 5 -67 l-6 -60 -82 -3 -83 -3 0 45 c0 25
4 56 10 70 9 24 14 26 77 26 38 0 73 -4 79 -8z m172 -7 c7 -3 12 -23 12 -55 0
-69 25 -67 39 3 l6 30 118 1 118 1 -3 -45 -3 -45 -78 -7 c-43 -4 -135 -6 -205
-5 l-127 2 -1 60 c-1 33 4 63 10 67 10 7 83 2 114 -7z m556 -8 c-4 -12 -12
-38 -19 -57 l-12 -35 -92 -9 c-104 -10 -118 -5 -101 38 5 15 10 38 10 51 0 27
12 30 143 33 77 1 78 1 71 -21z m182 -29 c-4 -29 -11 -57 -15 -61 -4 -4 -37
-7 -72 -5 l-64 3 4 50 c2 28 8 53 15 57 6 4 40 8 75 8 l64 0 -7 -52z m215 15
c3 -18 4 -44 1 -58 -4 -26 -5 -26 -91 -23 l-86 3 3 45 c4 72 3 71 89 68 l77
-3 7 -32z m200 10 c5 -15 9 -41 7 -57 -3 -30 -6 -31 -61 -40 -39 -6 -67 -5
-82 2 -21 10 -23 16 -20 64 1 29 3 54 4 56 0 1 33 2 71 2 67 0 71 -1 81 -27z
m217 -25 c4 -59 -13 -70 -101 -66 l-62 3 -3 44 c-5 70 -3 72 85 69 l78 -3 3
-47z m182 14 c3 -18 8 -33 13 -32 4 0 11 0 16 0 6 0 11 14 13 32 l3 32 65 -3
c71 -2 100 -21 100 -66 0 -21 -3 -22 -166 -28 -91 -4 -170 -4 -176 -1 -9 6 -2
78 9 97 3 4 30 7 61 5 56 -3 57 -4 62 -36z"/>
<path d="M3324 4731 c-93 -44 -144 -127 -144 -235 0 -190 197 -321 365 -242
72 33 110 69 139 131 108 227 -130 455 -360 346z m90 -107 c35 -35 35 -86 1
-119 -52 -53 -145 -16 -145 57 1 78 89 116 144 62z"/>
<path d="M5855 4741 c-105 -47 -155 -127 -155 -246 0 -110 44 -186 134 -233
68 -35 180 -37 242 -5 94 49 148 137 147 239 -1 154 -110 264 -263 264 -41 0
-80 -7 -105 -19z m74 -120 c40 -37 41 -73 2 -112 -59 -59 -141 -26 -141 57 0
79 79 111 139 55z"/>
<path d="M4571 3646 c-21 -25 -41 -106 -41 -167 0 -122 75 -217 188 -239 96
-18 177 25 219 116 49 108 38 224 -26 271 -44 33 -55 18 -46 -66 13 -134 -28
-221 -105 -221 -55 0 -84 14 -111 52 -21 29 -25 48 -29 148 -4 94 -8 115 -21
118 -9 1 -21 -4 -28 -12z"/>
<path d="M5665 2166 c-31 -46 14 -95 73 -79 17 4 22 13 22 37 0 17 -7 39 -14
49 -19 25 -62 22 -81 -7z m65 -11 c17 -21 5 -45 -23 -45 -31 0 -35 5 -29 35 5
28 33 33 52 10z"/>
<path d="M6256 1865 c-21 -7 -39 -15 -40 -17 -44 -52 -66 -96 -66 -130 0 -73
32 -107 99 -108 75 0 181 66 181 114 0 50 -54 61 -106 21 -37 -28 -74 -33 -74
-10 0 24 25 67 54 94 14 14 26 28 26 32 0 14 -38 16 -74 4z"/>
<path d="M3495 1790 c-17 -19 -17 -32 0 -87 5 -16 3 -25 -9 -29 -12 -4 -29 7
-56 36 -21 23 -44 40 -51 38 -42 -14 -35 -86 13 -139 41 -45 67 -59 111 -59
73 0 121 87 103 185 -13 66 -74 96 -111 55z"/>
<path d="M7370 1763 c0 -10 5 -25 10 -33 14 -22 30 0 19 28 -10 26 -29 29 -29
5z"/>
<path d="M7664 1589 c-3 -6 -1 -16 5 -22 8 -8 11 -5 11 11 0 24 -5 28 -16 11z"/>
<path d="M7796 1865 c-6 -17 39 -75 60 -75 24 0 16 47 -12 69 -32 25 -40 26
-48 6z"/>
<path d="M2186 1653 c-13 -27 -28 -64 -34 -83 -9 -30 -34 -99 -86 -240 -19
-51 -113 -315 -137 -385 -12 -33 -27 -73 -34 -90 -7 -16 -20 -52 -30 -80 -9
-27 -21 -58 -27 -69 -22 -42 -48 -142 -48 -186 0 -41 4 -50 28 -66 23 -16 46
-19 157 -18 72 0 222 6 335 12 448 26 571 31 970 42 228 6 570 16 760 21 190
6 1052 15 1915 19 1777 9 2082 18 2220 68 32 12 51 25 54 37 6 35 -26 45 -143
46 -94 1 -105 3 -73 11 40 11 81 57 75 86 -5 25 -22 21 -26 -6 -5 -34 -37 -44
-112 -35 l-65 8 0 40 0 40 80 0 c64 0 80 3 80 15 0 16 -85 33 -144 28 -33 -3
-36 -6 -53 -63 -21 -73 -11 -104 42 -118 l35 -10 -30 -9 c-60 -18 -1131 -36
-2085 -36 -531 0 -1140 -5 -1355 -11 -1501 -43 -1715 -50 -2028 -71 -424 -28
-516 -33 -532 -27 -14 6 -16 14 -11 42 4 19 13 47 21 62 8 15 15 35 15 44 0 9
3 19 6 22 4 4 15 28 24 54 9 27 29 82 44 123 40 111 150 444 176 530 43 150
48 166 60 221 20 90 -5 108 -44 32z"/>
<path d="M4399 1273 c-18 -44 -24 -113 -10 -113 16 0 41 61 41 99 0 41 -18 48
-31 14z"/>
<path d="M2640 1130 c-58 -4 -122 -8 -142 -9 -47 -1 -52 -26 -7 -35 43 -8 502
-6 566 3 60 8 72 16 54 34 -14 14 -309 19 -471 7z"/>
<path d="M3166 1058 c-10 -35 -24 -84 -32 -110 -18 -59 -18 -88 0 -88 15 0 15
1 51 140 29 109 30 120 12 120 -8 0 -21 -26 -31 -62z"/>
<path d="M2356 1047 c-9 -23 -24 -58 -33 -77 -8 -19 -17 -58 -20 -87 -5 -43
-3 -53 9 -53 15 0 29 32 62 137 29 95 15 160 -18 80z"/>
<path d="M2609 1016 c-11 -20 -24 -36 -27 -37 -38 -4 -68 -9 -81 -14 -14 -6
-14 -8 3 -21 11 -8 30 -14 43 -14 16 0 23 -6 23 -20 0 -25 27 -26 35 -1 3 10
16 22 28 25 31 8 237 7 237 -1 0 -4 -8 -28 -17 -53 -30 -82 -18 -78 -268 -82
-158 -2 -228 -7 -236 -15 -25 -25 40 -33 252 -33 177 0 211 -2 215 -15 8 -19
30 -20 37 -2 4 10 40 15 137 20 73 3 135 8 138 11 15 16 -23 26 -126 32 -71 5
-112 11 -111 18 0 6 10 38 22 71 l22 60 74 5 c47 3 76 10 79 18 3 9 -13 12
-57 12 -50 0 -62 3 -75 22 l-16 22 -23 -22 c-23 -21 -32 -22 -148 -20 -104 3
-123 5 -120 18 13 55 -11 65 -40 16z"/>
<path d="M4205 918 c-14 -64 -9 -161 7 -156 11 4 36 110 37 161 1 26 -38 22
-44 -5z"/>
<path d="M4400 929 c-23 -10 -24 -11 -7 -24 14 -10 16 -21 11 -54 -9 -53 9
-54 36 -1 24 46 50 63 86 54 24 -6 25 -9 19 -50 -8 -57 7 -57 34 0 23 49 45
61 98 51 l35 -6 -4 -52 c-4 -70 19 -71 42 -2 l17 50 61 3 62 3 0 -56 c0 -69
17 -70 37 -2 l14 47 51 0 50 0 -4 -56 c-3 -31 -11 -59 -18 -64 -7 -4 -102 -7
-210 -5 -177 3 -236 -2 -218 -20 3 -3 187 -8 409 -11 383 -5 861 -23 1124 -44
344 -27 695 -24 695 6 0 8 -9 14 -20 14 -17 0 -20 7 -20 45 0 34 -4 45 -16 45
-12 0 -15 -9 -12 -42 l3 -43 -54 -3 c-30 -2 -58 1 -64 7 -6 6 -20 5 -39 -1
-25 -9 -255 -5 -264 5 -1 1 1 29 4 62 l7 60 125 0 125 0 3 -52 c5 -78 41 -66
42 14 0 12 5 25 10 28 6 4 94 8 197 11 103 2 189 7 192 9 2 3 0 10 -5 15 -13
13 -529 26 -1113 29 -245 1 -447 4 -451 6 -4 2 -60 5 -126 6 -65 1 -202 7
-304 14 -235 15 -607 18 -640 4z m814 -57 c7 -12 -15 -96 -28 -104 -13 -9 -78
-10 -100 -2 -17 6 -21 49 -10 92 6 20 12 22 70 22 34 0 65 -4 68 -8z m172 -2
c28 0 32 -4 38 -35 9 -44 30 -45 42 -2 11 36 39 46 74 27 17 -9 21 -19 18 -53
l-3 -42 -157 -2 c-87 -1 -160 2 -163 7 -7 11 23 92 38 102 7 5 28 6 47 3 19
-2 49 -5 66 -5z m399 -65 l0 -50 -55 -3 c-30 -1 -73 1 -95 6 -42 9 -45 16 -30
80 5 22 9 23 93 20 l87 -3 0 -50z m503 40 c6 -2 12 -21 12 -40 0 -20 5 -45 10
-55 9 -17 6 -21 -15 -26 -15 -4 -41 -2 -58 3 -26 7 -33 14 -35 41 -5 46 -32
43 -32 -3 l0 -36 -62 3 c-54 3 -63 6 -66 23 -11 73 -27 82 -34 20 l-3 -30 -90
0 -90 0 -3 45 c-2 30 1 48 11 55 13 10 426 10 455 0z"/>
<path d="M7186 871 c-4 -6 -4 -12 1 -12 43 -7 79 -9 217 -15 165 -6 217 -1
198 18 -15 15 -407 24 -416 9z"/>
<path d="M7040 781 c0 -28 5 -53 10 -56 12 -8 30 36 30 76 0 22 -5 29 -20 29
-17 0 -20 -7 -20 -49z"/>
<path d="M7260 771 c0 -38 5 -63 14 -70 22 -18 28 2 20 69 -4 41 -11 60 -20
60 -10 0 -14 -16 -14 -59z"/>
<path d="M6865 780 c-4 -6 -4 -27 0 -46 8 -44 31 -39 28 6 -1 36 -17 58 -28
40z"/>
<path d="M7546 774 c-4 -10 -2 -22 3 -27 7 -7 13 -5 17 7 4 10 2 22 -3 27 -7
7 -13 5 -17 -7z"/>
<path d="M7440 763 c1 -19 22 -53 34 -53 11 0 6 46 -6 58 -17 17 -28 15 -28
-5z"/>
</g>
</svg>
